<svg fill="#FFFFFF" viewBox="0 0 512 512" xmlns="http://www.w3.org/2000/svg" width="512" height="512"><path d="m338.3125 261.5625 2.76000977 1.33056641C349.03579411 266.83706959 356.10548082 271.41562256 363 277l1.78369141 1.43017578c33.46613608 27.07121924 51.46115882 64.31194657 56.24731445 106.81079102C424.173522 416.73971701 424.173522 416.73971701 416.375 428.4375c-4.05122149 2.6652773-8.8022256 3.82496604-13.65087891 3.33032227-2.26956332-.49252763-4.4910892-1.06759007-6.72412109-1.70532227-7.57357273-2.12349305-14.04800261-2.89212842-21.375.5-6.46559726 6.00376888-6.24925875 14.94086376-6.70898438 23.19140625C367.50247715 459.24268962 366.62747617 462.61965142 363 467c-4.32991289 3.7113539-8.57994774 3.35468865-14 3-3.01928246-.47098001-5.92967712-1.19143083-8.875-2l-2.47021484-.66894531C328.41667466 464.71184745 319.67944072 461.08009476 311 457l-2.22705078-1.046875C292.54139117 448.16952839 278.92185582 437.43239158 266 425c1.4071404-3.11092121 3.21874254-5.8224236 5.17236328-8.61499023C286.9102421 393.71359614 296.14545136 369.08327138 301 342c2 1.6328125 2 1.6328125 4 4 .25 2.8046875.25 2.8046875 0 5.875-.18089721 5.30416463.27226271 8.08661794 4 12.125 3.24300092 2.8499099 5.86630012 3.86662354 10.1875 4.375 4.96676965-.48853472 8.14896195-1.99074512 11.8125-5.375 2.81805261-4.07642831 3.32070336-7.85178708 2.5-12.6875-1.3863131-4.96334319-4.03729499-7.75278683-8.375-10.5-2.27193704-.94152889-2.27193704-.94152889-5.40625-1.42578125-4.84808992-1.80784866-6.4932733-4.22220307-9.34375-8.38671875l-1.51513672-2.12036133c-1.06969628-1.49866666-2.1321574-3.00251921-3.18798828-4.51098633-1.7240889-2.44262712-3.48828026-4.85126335-5.265625-7.25537109-1.17746101-1.59998255-2.35455325-3.20023655-3.53125-4.80078125l-1.68603516-2.28320312C289.65639287 301.40503801 289.65639287 301.40503801 289 298c1.1953125-2.2890625 1.1953125-2.2890625 3.125-4.625 6.24912485-8.22965457 9.05055666-17.39934421 8.9375-27.6875l-.02734375-3.23828125L301 260c2.46686385-1.00429635 4.93666432-1.99661447 7.41796875-2.96484375 2.6715058-1.03419117 2.6715058-1.03419117 5.51953125-2.47265625 8.10285908-1.48828024 17.21295955 3.53678316 24.375 7Z"/><path d="M235 308c2.8574532.32656608 5.38926152 1.12812989 8.12109375 2.02734375 4.37061377 1.09595451 8.2727543 1.31492978 12.75390625 1.28515625l2.40478516-.00170898C264.07661605 311.21967584 268.59371575 310.14387134 274 308c3.08538004.1436513 4.06789415 1.06317303 6.359375 3.1953125 5.59795469 6.86023859 7.74469346 11.477319 7.13671875 20.625C287.33736425 333.21431318 287.1716099 334.6075263 287 336l-.25341797 2.34667969C283.41742196 368.22010533 271.92357068 395.37202712 252 418l-2.3984375 2.80078125C243.91343351 427.28740154 237.82955434 432.74577104 231 438l-2.765625 2.20703125c-18.64665083 14.54540659-47.62480061 31.79386961-72.25390625 30.140625C152.73886105 469.77861663 150.63446087 468.99190944 148 467c-2.77295608-5.31539747-3.55969599-10.00840622-4-15.9375-.52640682-7.05265506-1.34526904-13.69984078-5.875-19.4375-5.00422391-3.82675946-9.06546217-3.77831545-15.0859375-3.12109375-3.15163265.5144696-6.14832537 1.27555266-9.2265625 2.12109375-6.23568863 1.64777264-10.57013503 1.74399854-16.625-.8125C92.38364753 425.8321651 91.69495974 420.92628874 91 415c-1.41242492-28.32339967 1.79881381-55.09625425 13.1875-81.25l1.00854492-2.33056641C106.04283884 329.57014289 107.01204969 327.77788926 108 326c3.30507679-1.10169226 3.91214799-.94120828 7.0703125.109375l2.44165039.78442383L120.125 327.75c25.90778237 8.13092074 51.11344242 8.05796586 77.875 5.25-1.75146484 3.88232422-1.75146484 3.88232422-3.98828125 4.94140625L191.6875 338.5625c-4.75552084 1.42741958-8.35250689 2.67340196-11.4375 6.75-2.69202228 5.78784791-2.35305074 9.71040843-.25 15.6875l.8125 2.3125c2.42064609 3.43986549 6.13565513 3.6766293 10.0625 4.5 4.37567968.45407997 7.28945893-.59968784 11.125-2.8125 2.09915641-2.26487929 3.62520718-4.25041436 5-7l-.359375-2.1875c-1.09690749-7.89773393 1.46736904-12.34642117 6.046875-18.4375 1.7912632-2.33471381 3.60213784-4.65158661 5.4296875-6.95800781C221.26910069 326.37083807 224.21537375 322.17893344 227.1875 318c1.07424757-1.50184545 2.15087058-3.0019962 3.23046875-4.5l1.36791992-1.90625C233 310 233 310 235 308Zm219-150c3.52217347 3.12592895 5.57462549 5.17903898 6.29101562 9.92993164.41677377 7.84011491-3.14765275 12.56850306-7.38085937 18.87670898C449.25881364 192.57765876 447.93128238 197.16082141 449 204c3.49319699 7.71414335 10.64981747 10.52291117 18.125 13.5 5.19321192 2.08122399 10.24754104 4.24508209 12.875 9.5 1.66636953 7.56386864-.49918303 12.80073569-4.5 19.0625-4.13439938 6.26752678-8.57456701 12.26696222-13.5 17.9375l-2.14453125 2.4765625C446.40363474 281.69527489 428.87453144 299.37515619 409 306l-1.765625-2.3515625C389.0294148 279.57990494 369.20336559 261.48251911 342 248v-2c6.27198124-1.37983587 6.27198124-1.37983587 9.875.5 4.3170426 2.07218045 7.55727469 1.68695371 12.125.5 4.03460324-1.94258674 5.64314128-3.40139827 7.9375-7.25 1.65306707-5.83435435 1.11670247-9.6806396-1.625-15.0625-3.6748231-4.27074036-6.67944242-5.50604916-12.25-6.125-4.43113326.21181325-7.74645961 1.47427864-11.0625 4.4375-.88999421 1.86879487-.88999421 1.86879487-1.60180664 3.91381836-1.68370266 3.51704669-3.1095202 4.8254562-6.72021484 6.29541016-1.7560347.58831869-3.52349462 1.14327413-5.29907227 1.66967773l-2.83912659.91453552c-1.97498351.62978517-3.95466193 1.24501143-5.9384613 1.84645081-3.03525531.92152565-6.05343437 1.8874748-9.07202148 2.86206054-1.92429636.60746549-3.84940284 1.2123719-5.77539063 1.81445313l-2.73399353.86756897C298.91549391 245.61781892 298.91549391 245.61781892 295 244c-.97034431-1.37186609-1.92916457-2.75478903-2.80078125-4.19140625C285.56198221 229.79868978 275.26674454 225.01009155 264 222c-1.66761604-19.39850791-1.66761604-19.39850791 3.8125-26 1.70085973-1.69554455 3.4316108-3.36151037 5.1875-5 1.3239305-1.5170037 2.64763871-3.03429215 3.95605469-4.56469727C317.38542998 139.92987842 400.6565897 127.84615557 454 158Z"/><path d="M126.49487305 142.79418945c2.33189729.0184233 4.66339825.02050768 6.99536133.02026367 1.509769.00491176 3.01953537.01073857 4.52929687.01757813.68351029.00111282 1.36702057.00222564 2.07124329.0033722C152.96015194 142.96015192 152.96015194 142.96015192 155 145c.16488614 2.91909533.28022129 5.82847328.375 8.75 1.1120613 25.9395306 5.86426665 53.77128651 19.625 76.25v2c-2.75 0-2.75 0-6-1-1.04296875-1.70703125-1.04296875-1.70703125-1.9375-3.8125-1.697962-3.89203636-3.30694577-5.72122655-7.13671875-7.56640625-4.62201094-1.49066885-8.57199207-1.08971308-13.17578125.50390625-4.41687898 3.0115084-6.7143374 6.53067067-7.75 11.75-.35602224 4.76522073 1.0215271 8.41827411 4 12.125 3.9843982 3.27546248 7.69919127 4.31637681 12.8125 3.875 3.20057575-.46450834 4.37781724-1.00187816 7.1875-2.875 5.72595627.3611979 10.98258448 2.1023476 16.3984375 3.87109375.87556549.2823903 1.75113098.56478058 2.65322876.85572815 1.83804624.59475737 3.67514209 1.19245907 5.51132202 1.7929535 2.82094959.92064155 5.64626254 1.82687855 8.47216797 2.73217772 1.78804044.58051845 3.57581093 1.16186913 5.36328125 1.74414063l2.56918335.8209076C205.9982378 257.48736064 208.00255402 258.23645801 210 259c1.26310238 2.52620476.99624005 4.12068947.875 6.9375-.07611698 11.6611212 4.28859362 23.3553818 12.125 32.0625-2.66310623 7.00159385-5.42557768 13.2312137-12.41015625 16.6875-33.62015956 12.34901858-74.50010412 7.2266089-106.50634765-7.57373047C94.33913504 302.42167215 85.5757194 296.55805781 77 290l-2.828125-2.14453125c-14.4423079-11.38070754-40.08752244-33.55534253-42.4453125-53.125-.17668115-4.42382417-.07503428-7.09360653 2.0859375-11.04296875C37.68557726 219.79254094 43.01857782 218.0711528 48 216c6.63135308-2.95447156 11.61938526-5.23877052 15-12 2.08627036-10.40984382-4.2943495-18.37906946-9.73828125-26.63671875C51.25147483 173.59796368 51.44686384 170.15988703 52 166c2.26983236-5.37591875 6.46292728-8.4586544 11.72265625-10.74609375 1.4413795-.57705432 2.8883948-1.14016902 4.33984375-1.69140625l2.3659668-.90698243c18.16362839-6.73774256 36.7320088-10.01925202 56.06640625-9.86132812Z"/><path d="M231 43.3125c3.90688396 3.01698262 6.77523893 7.21111778 9.8203125 11.05078125C244.06490224 58.28818819 247.08371692 61.36123897 252 63c5.78967545.37965085 8.89141357.04035923 14-3 2.68851867-2.50253627 2.68851867-2.50253627 5.125-5.375l2.5078125-2.8359375c1.52482666-1.79657794 3.00370353-3.63371685 4.421875-5.515625 2.48147053-2.90003182 4.34363408-4.02299324 8.09375-4.609375C291.67712371 41.56706801 294.69115746 42.24122246 299 46c19.76643543 19.19540507 31.97251599 46.24345101 39 72.4375l.62988281 2.34692383C339.67999959 124.94948856 340.21966683 128.66844468 340 133l-4.0625 1.625-2.7890625 1.125c-2.15305481.85481084-4.31512453 1.6871661-6.484375 2.5-20.26790057 7.73785358-38.21423457 18.24925069-53.9453125 33.20703125C269.89607994 174.09720109 266.989017 176.55164343 264 179c-.60318451-6.03184515-.60318451-6.03184515 1.078125-8.73046875C266.33754781 168.80382367 267.66644937 167.39860188 269 166c1.85618207-3.71236414 1.44809981-7.94843088 1-12-2.16298837-4.40608743-4.39680479-7.1987497-9-9-5.04325384-.68426057-8.83076884-.5739862-13.4375 1.6875-3.35906012 3.03134694-5.25605631 5.05389648-5.87890625 9.64453125C241.41578056 162.09433442 242.14829315 165.46858018 246 170l2 2c.24050903 2.13870239.24050903 2.13870239.22705078 4.81689453l-.00045776 3.0329895-.03128052 3.28292847-.00857544 3.35446167c-.01122187 3.5460172-.03633015 7.09178458-.06173706 10.63772583-.0100272 2.39973594-.0191535 4.79947583-.02734375 7.19921875C248.07556932 210.21623151 248.04207207 216.10809791 248 222l-2.45800781.77832031-3.24511719 1.04980469-3.20800781 1.02832031C229.69301936 228.33495869 220.51343634 235.97312732 216 245c-7.23687516-.64327779-14.84407433-1.92241292-20.203125-7.1484375C183.12403454 221.23716929 176.04810316 200.26075632 172 180l-.6875-3.234375c-7.1663186-40.01194551 5.66882088-81.58674849 28.18823242-114.65698242C217.09317858 37.22826563 217.09317858 37.22826563 231 43.3125Zm39.8203125 195.43359375C279.01860874 243.46231793 283.02937981 249.74501284 286.3125 258.5c1.70675633 8.68894132.87872733 16.90292528-3.56640625 24.69921875C277.00057632 291.41828319 270.06162203 295.76712772 260.3125 297.75c-8.76952011.90372917-17.27544916-1.49212805-24.3125-6.75-7.34503729-6.80201897-10.85155446-14.23689038-11.25-24.25.14283692-8.62735024 3.61989371-16.2668473 9.25-22.75 10.48282089-8.79204333 24.20972763-11.18708307 36.8203125-5.25390625Z"/></svg>
